grf
version=1
nRows=23
nColumns=28
inDegrees=no
endheader
time	ground_force_1_vx	ground_force_1_vy	ground_force_1_vz	ground_force_1_px	ground_force_1_py	ground_force_1_pz	ground_moment_1_mx	ground_moment_1_my	ground_moment_1_mz	ground_force_2_vx	ground_force_2_vy	ground_force_2_vz	ground_force_2_px	ground_force_2_py	ground_force_2_pz	ground_moment_2_mx	ground_moment_2_my	ground_moment_2_mz	ground_force_3_vx	ground_force_3_vy	ground_force_3_vz	ground_force_3_px	ground_force_3_py	ground_force_3_pz	ground_moment_3_mx	ground_moment_3_my	ground_moment_3_mz
      0.30000000	      0.28335146	      0.24351498	      1.98156220	    315.98464455	  -1151.31893359	      1.82770949	      0.00026202	      0.00094745	      0.51915328	      1.14181169	     -2.76661887	      1.73529750	     19.58463092	  -1692.15111886	      0.16727198	      0.07368154	      0.95291881	  -1141.85728344	     13.80006178	    -69.86096755	   -149.02503939	    518.60423936	   -397.67742221	      0.63360189	      0.10880872	     -0.79930088	   -389.21168865
      0.31000000	      0.39070920	      0.36975644	      1.72668036	    317.54081236	  -1222.73397447	      1.95725632	      0.01111206	      0.04018136	     22.01721990	      1.07307781	     -2.54407914	      1.98115614	    139.24517925	  -1596.46162667	      0.25484956	      0.04138961	      0.53528929	   -641.42292306	      3.55142067	    -51.89249181	    -59.76238796	    534.75540615	   -401.79403697	      0.64657119	     -0.09010031	      0.66187028	    322.29120990
      0.32000000	      0.32346182	      0.22025902	      1.29393008	    242.69413701	  -1140.62772952	      1.84518770	     -0.00224581	     -0.00812087	     -4.44979699	      0.84008485	     -2.86797287	      2.10490487	    200.80065864	  -1612.17525034	      0.24570804	      0.03418786	      0.44214952	   -529.81601357	     -0.70716408	    -20.73639247	    -17.83036237	    574.65254397	   -437.61835680	      0.73129518	     -0.25593564	      1.88008449	    915.48861561
      0.33000000	      0.32368299	      0.19589601	      1.62437054	    303.95221482	  -1129.50555680	      1.79397290	      0.00685554	      0.02478972	     13.58343027	      1.04671521	     -2.78920362	      2.07164216	    178.70789487	  -1584.43580875	      0.26743195	      0.03475847	      0.44952920	   -538.65888953	      0.43302365	     -3.52050011	      3.22844897	    341.95655200	   -131.04170763	      0.03664405	      0.17357939	     -1.27510155	   -620.89813448
      0.34000000	      0.33719088	      0.21131329	      1.76543097	    320.90255534	  -1088.47379867	      1.71053526	      0.00117155	      0.00423635	      2.32129132	      1.08724388	     -2.79038476	      1.68985747	     24.00554348	  -1589.97781077	      0.25282436	      0.06689985	      0.86521167	  -1036.76014445	      1.48532564	     -0.79740709	      5.83667844	    469.39109111	   -247.74768209	      0.31194199	     -0.03406859	      0.25026538	    121.86425985
      0.35000000	      0.16187460	      0.28327711	      1.66547417	    293.30301600	  -1104.56790208	      1.75383640	      0.03469908	      0.12547232	     68.75207734	      1.14173938	     -2.76696534	      1.64951560	     42.59436544	  -1467.20276513	      0.35648382	      0.05175823	      0.66938594	   -802.10738546	      1.46917633	     -0.72624176	      5.79532707	    427.87243117	   -280.77576070	      0.36816276	     -0.00111166	      0.00816616	      3.97643029
      0.36000000	      0.25662643	      0.08460381	      1.72881330	    296.52289280	  -1127.15081767	      1.79342508	      0.01594760	      0.05766674	     31.59827047	      1.12106154	     -2.71574089	      2.61783635	    248.14614008	  -1650.76732466	      0.21655674	      0.02191619	      0.28344068	   -339.63942937	      1.32977764	     -0.71432030	      5.52266041	    457.01033278	   -239.13652883	      0.29079659	     -0.02792532	      0.20513732	     99.88959869
      0.37000000	      0.17904629	      0.26830142	      1.81668141	    298.03127773	  -1130.54834299	      1.79886427	      0.01373444	      0.04966389	     27.21314006	      1.19251533	     -2.81343623	      1.66341819	    129.48876901	  -1602.86541684	      0.24887582	      0.04189380	      0.54180987	   -649.23636849	      1.29417980	     -0.79123444	      5.84963250	    436.41361478	   -232.18349513	      0.27075950	     -0.01352201	      0.09933171	     48.36859583
      0.38000000	      0.26412950	      0.45371244	      2.15925988	    368.87384631	  -1168.81351341	      1.83294394	      0.00762966	      0.02758894	     15.11725151	      0.81014507	     -2.67622362	      2.12223016	    164.75903557	  -1635.82665331	      0.22364445	      0.04507662	      0.58297313	   -698.56120448	      1.41525044	     -0.63898227	      5.93779862	    419.39975104	   -201.28002648	      0.20253846	     -0.02003133	      0.14714870	     71.65261022
      0.39000000	      0.33405398	      0.48033801	      2.03766311	    351.18216597	  -1204.16633929	      1.90639170	      0.01538182	      0.05562086	     30.47723864	      0.96429725	     -2.60155542	      2.49520029	    197.57336186	  -1627.19167513	      0.23296807	      0.03618013	      0.46791534	   -560.69051356	      1.30024342	     -0.61076328	      5.83672520	    409.95019583	   -241.10036733	      0.28167339	     -0.00667029	      0.04899944	     23.85979580
      0.40000000	      0.24325227	      0.28555551	      2.77142833	    403.53374500	  -1143.48901282	      1.76923400	      0.00532429	      0.01925271	     10.54944588	      1.06351082	     -2.68970304	      1.99934963	    101.20563323	  -1671.71717683	      0.18959163	      0.05249616	      0.67892960	   -813.54329622	      1.58756309	     -0.72458557	      6.26432313	    445.97126557	   -222.97465943	      0.25451982	     -0.05531273	      0.40632326	    197.85510550
      0.41000000	      0.28313835	      0.28365244	      1.73363128	    317.86336514	  -1096.81969555	      1.72730037	      0.02458180	      0.08888812	     48.70590198	      0.73178040	     -2.92496504	      2.63540412	    240.59601712	  -1652.02895667	      0.21501667	      0.03536811	      0.45741354	   -548.10648434	      1.31885624	     -0.63948929	      5.92397698	    431.11757523	   -231.01378973	      0.26687678	     -0.02216405	      0.16281548	     79.28139248
      0.42000000	      0.26754130	      0.47114970	      1.88007784	    351.15264502	  -1140.08997505	      1.78946744	      0.00105520	      0.00381563	      2.09076011	      0.88208326	     -2.60057416	      1.51103653	    -27.62870892	  -1526.93452009	      0.30210429	      0.06594751	      0.85289505	  -1022.00146496	      1.20924472	     -0.47041323	      5.78406318	    402.66755769	   -215.05263049	      0.22614476	     -0.00377787	      0.02775196	     13.51354338
      0.43000000	      0.21965380	      0.20604879	      1.94023825	    349.92831590	  -1156.28229824	      1.81963629	     -0.00368666	     -0.01333099	     -7.30466658	      0.93644236	     -2.74269063	      1.81467749	    115.69788234	  -1575.98076426	      0.27042208	      0.04638993	      0.59995806	   -718.91380149	      1.50513278	     -0.70063590	      6.08051817	    406.24621325	   -250.42032464	      0.29977774	     -0.02211963	      0.16248921	     79.12251983
      0.44000000	      0.43977387	      0.16345710	      1.97534042	    345.25115175	  -1161.03618567	      1.83067268	     -0.00673992	     -0.02437165	    -13.35435373	      1.29576497	     -2.82849596	      1.71392454	    105.81756344	  -1539.38562555	      0.30032441	      0.03980933	      0.51485158	   -616.93296468	      1.34522320	     -0.65473083	      6.14017866	    408.57114646	   -243.83312520	      0.28689997	     -0.01924444	      0.14136822	     68.83785996
      0.45000000	     17.71662541	     78.77513762	   -108.24853599	    355.53704958	  -1472.66098538	      2.39419568	      0.19010816	      0.68743355	    376.67657118	      0.19514791	     -0.47381340	      3.66585538	    297.39424598	  -1620.99436840	      0.24458116	      0.00728310	      0.09419192	   -112.86767449	      1.38660560	     -0.05265909	      6.03057356	    406.54237506	   -261.46396774	      0.32254021	      0.02628521	     -0.19308920	    -94.02288283
      0.46000000	     63.32842435	    174.07532055	   -429.33774527	    367.63144944	  -1471.89071815	      2.38668591	      0.14016825	      0.50685019	    277.72661462	     95.68091408	      4.16511521	   -431.84815475	    365.50736375	  -1548.51631600	      0.30946175	     -0.03509846	     -0.45392618	    543.92767552	      1.74675195	     -0.22432249	      6.90705375	    452.34063010	   -280.99860878	      0.37546078	     -0.00550765	      0.04045878	     19.70100421
      0.47000000	     40.29824764	    159.85650063	   -851.81645806	    391.37824677	  -1462.10303237	      2.35683844	     -1.55035118	     -5.60608990	  -3071.83540553	     84.07603190	     15.21675611	   -728.96198925	    377.36385440	  -1555.46423280	      0.30442855	      0.12203397	      1.57825777	  -1891.18433272	      2.10689134	     -0.64959102	      5.27938125	    438.04217405	   -188.17645293	      0.18084014	     -0.07324938	      0.53808460	    262.01499474
      0.48000000	   -102.72534543	     86.49614997	   -835.22664760	    412.82328351	  -1461.53627298	      2.34498083	     -1.34225181	     -4.85359987	  -2659.51138415	     13.28629941	    -48.02713511	   -970.14203441	    391.81019804	  -1563.92328078	      0.29830138	      0.19756372	      2.55507937	  -3061.68369932	      1.22614393	     -0.84416615	      5.91063533	    485.52587675	   -227.31111773	      0.27448330	     -0.01885943	      0.13853999	     67.46068143
      0.49000000	   -106.79047253	    197.25596233	   -655.34216861	    419.84154343	  -1477.53999216	      2.37064546	     -0.55708352	     -2.01442121	  -1103.79435360	    127.21415434	    136.95986877	  -1334.42917438	    391.93568460	  -1577.31041741	      0.28713746	     -0.18074086	     -2.33751027	   2800.97642826	      1.43249254	     -0.43643486	      6.05678644	    446.18083262	   -223.89847282	      0.25647559	     -0.08941340	      0.65682431	    319.83412459
      0.50000000	    -62.01427156	    160.21670485	   -480.74485308	    417.82293998	  -1483.88095312	      2.38323648	     -0.83133084	     -3.00610306	  -1647.18261163	     57.40050040	    140.04439439	  -1523.59392136	    396.98319200	  -1582.61583064	      0.28303561	      0.14209858	      1.83775207	  -2202.12946100	      1.94121891	     -0.60463265	      6.35464726	    473.21536009	   -266.03455290	      0.35056577	     -0.07583794	      0.55709995	    271.27433094
      0.51000000	    -44.71180343	    136.65310985	   -392.43874303	    415.47298854	  -1487.83459537	      2.39163788	     -0.76647383	     -2.77157928	  -1518.67621194	     86.38245107	    122.93968443	  -1740.32324840	    397.75668935	  -1586.45999766	      0.27987744	      0.14453921	      1.86931669	  -2239.95250077	      1.70331818	     -0.91731452	      6.50146959	    427.12696567	   -244.94322624	      0.29436721	     -0.06931645	      0.50919361	    247.94681091
      0.52000000	    -34.75790859	    115.82628880	   -317.67203152	    414.13801504	  -1490.95291758	      2.39800257	     -0.64592205	     -2.33566246	  -1279.81726583	     88.37700526	    115.04033397	  -1907.44357472	    398.98191161	  -1589.40316169	      0.27750033	      0.16365458	      2.11653454	  -2536.18708136	      1.72686824	     -0.69629623	      5.66418345	    434.22565232	   -255.37096506	      0.31776656	     -0.08549267	      0.62802292	    305.80957236
